<?xml version="1.0" encoding="UTF-8"?>
<svg width="102px" height="40px" viewBox="0 0 102 40" version="1.1" xmlns="http://www.w3.org/2000/svg" xmlns:xlink="http://www.w3.org/1999/xlink">
    <!-- Generator: Sketch 45.2 (43514) - http://www.bohemiancoding.com/sketch -->
    <title>logo</title>
    <desc>Created with Sketch.</desc>
    <defs></defs>
    <g id="Symbols" stroke="none" stroke-width="1" fill="none" fill-rule="evenodd">
        <g id="Logo">
            <g id="logo">
                <g id="Ресурс-1">
                    <g id="Слой_2">
                        <g id="Layer_1">
                            <path d="M90.9017613,7.12000944 C93.8497315,7.11632769 96.6777152,8.29810009 98.7603523,10.403998 L98.7603523,10.403998 C103.061366,14.7888083 103.04385,21.8572203 98.7211575,26.2202592 C94.3984651,30.5832982 87.3954171,30.6009781 83.0511546,26.2598198 L83.0511546,26.2598198 C79.8776304,23.0510366 78.9302531,18.2293539 80.650372,14.0410217 C82.3704909,9.85268961 86.4197492,7.12157602 90.9117417,7.12000944 L90.9017613,7.12000944 Z M57.4313894,7.33155472 L61.8786693,7.33155472 L67.5116243,23.112832 L65.2819961,29.332263 L57.4313894,7.33155472 Z M27.4601566,29.3987487 L27.4601566,14.3669461 C27.5146831,13.0798525 27.8872802,11.8269623 28.5440313,10.7223232 C29.232144,9.57462551 30.2242205,8.64376666 31.4084149,8.03469091 C32.6956288,7.35847552 34.1339072,7.0288585 35.584227,7.07770039 C38.0194521,7.13948504 40.0048924,8.17236323 41.5405479,10.1763349 C42.9564384,8.11057858 45.1374951,7.07770039 48.0837182,7.07770039 C49.4058466,7.07794804 50.7052046,7.4250856 51.8543249,8.08505883 C53.0043924,8.71646712 53.9685107,9.64370865 54.6488454,10.7726911 C55.313673,11.8521286 55.6656388,13.0979495 55.6648532,14.3689608 L55.6648532,29.4007634 L51.6986301,29.4007634 L51.6986301,15.5959233 C51.7190012,14.4547284 51.4141529,13.3316463 50.8203523,12.360288 C50.2321722,11.4200868 49.2341292,10.9345401 47.8262231,10.9036477 C46.3504501,10.9036477 45.2745597,11.3670326 44.5985519,12.2938024 C43.9118007,13.2529316 43.5555993,14.4128984 43.5845401,15.5959233 L43.5845401,29.3987487 L39.5105284,29.3987487 L39.5105284,15.8699248 C39.5105284,14.3212791 39.1645401,13.0990176 38.4725636,12.2031401 C37.7805871,11.3072627 36.7878669,10.8747701 35.4944031,10.9056625 C33.8975342,10.9352116 32.8216438,11.4288173 32.2667319,12.3864794 C31.71182,13.3441414 31.4336986,14.5972953 31.4323679,16.1459411 L31.4323679,29.4007634 L27.4601566,29.3987487 Z M19.1624266,2.52444025 C19.1737811,1.89547624 19.4322753,1.29683977 19.8810176,0.860284107 C20.8325858,-0.0198809833 22.2928545,-0.0198809833 23.2444227,0.860284107 C23.6925602,1.33090395 23.9286802,1.96716311 23.8971429,2.61913194 C23.9272489,3.26907545 23.6912162,3.90291362 23.2444227,4.37193562 C22.8254941,4.80573073 22.2476374,5.04559237 21.6475538,5.03477748 C20.9932872,5.03700503 20.3633827,4.7844235 19.889002,4.32962657 C19.3805956,3.87558633 19.1117818,3.20771485 19.1624266,2.52444025 L19.1624266,2.52444025 Z M19.5237182,29.3987487 L19.5237182,7.53504112 L23.4959295,7.53504112 L23.4959295,29.3987487 L19.5237182,29.3987487 Z M4.34947162,22.564829 L4.34947162,11.3609885 L0,11.3609885 L0,7.5330264 L4.34947162,7.5330264 L4.34947162,0.201471688 L8.27377691,0.201471688 L8.27377691,7.53504112 L15.5515068,7.53504112 L15.5515068,11.3630032 L8.27377691,11.3630032 L8.27377691,23.3425097 C8.28277046,23.9392084 8.54608434,24.5030552 8.99636008,24.8898123 C9.47808219,25.3464815 10.1846967,25.5741445 11.1162035,25.5728013 L15.5515068,25.5728013 L15.5515068,29.4007634 L11.0263796,29.4007634 C8.74152642,29.4007634 7.05682975,28.7479951 5.97228963,27.4424586 C4.88774951,26.136922 4.34681018,24.5110455 4.34947162,22.564829 Z M96.0257143,13.1621454 L96.0257143,13.1621454 C93.1969356,10.3075202 88.6110259,10.3079712 85.7827984,13.1631527 C82.9545709,16.0183343 82.9550178,20.6470472 85.7837965,23.5016724 L85.7837965,23.5016724 C88.6251361,26.2967935 93.1647389,26.267368 95.970277,23.435644 C98.775815,20.6039201 98.8049684,16.0219462 96.0356947,13.1540865 L96.0257143,13.1621454 Z" id="Shape" fill="#000000"></path>
                            <polygon id="Shape" fill="#447FC0" points="79.4242661 7.33155472 74.8691977 7.33155472 72.2822701 14.5764766 76.8393346 14.5764766 79.4242661 7.33155472"></polygon>
                            <polygon id="Shape" fill="#FFD700" points="71.6954207 16.2204856 69.40591 22.6353441 73.9629746 22.6353441 76.2544814 16.2144414 71.6954207 16.2204856"></polygon>
                            <polygon id="Shape" fill="#7BC198" points="68.8190607 24.2813678 66.5235616 30.7123441 71.0806262 30.7123441 73.3781213 24.2753237 68.8190607 24.2813678"></polygon>
                            <polygon id="Shape" fill="#E8425E" points="65.9367123 32.356353 63.3497847 39.6053044 67.9068493 39.6053044 70.495773 32.3523236 65.9367123 32.356353"></polygon>
                        </g>
                    </g>
                </g>
            </g>
        </g>
    </g>
</svg>